<svg width="74" height="74" viewBox="0 0 74 74" fill="none" xmlns="http://www.w3.org/2000/svg">
<path fill-rule="evenodd" clip-rule="evenodd" d="M37 74C57.4345 74 74 57.4345 74 37C74 16.5655 57.4345 0 37 0C16.5655 0 0 16.5655 0 37C0 57.4345 16.5655 74 37 74ZM37 71.04C45.0907 71.04 52.5222 68.2173 58.3633 63.503C55.727 54.1863 47.1605 47.36 36.9996 47.36C26.8389 47.36 18.2725 54.1861 15.6361 63.5026C21.4773 68.2171 28.909 71.04 37 71.04ZM36.9996 44.4C48.0195 44.4 57.3847 51.4846 60.7889 61.3477C67.1139 55.167 71.04 46.542 71.04 37C71.04 18.2002 55.7998 2.96 37 2.96C18.2002 2.96 2.96 18.2002 2.96 37C2.96 46.5417 6.88591 55.1665 13.2106 61.3472C16.6149 51.4844 25.98 44.4 36.9996 44.4ZM48.8401 28.12C48.8401 34.659 43.5391 39.96 37.0001 39.96C30.461 39.96 25.1601 34.659 25.1601 28.12C25.1601 21.5809 30.461 16.28 37.0001 16.28C43.5391 16.28 48.8401 21.5809 48.8401 28.12ZM45.8801 28.12C45.8801 33.0243 41.9044 37 37.0001 37C32.0958 37 28.1201 33.0243 28.1201 28.12C28.1201 23.2157 32.0958 19.24 37.0001 19.24C41.9044 19.24 45.8801 23.2157 45.8801 28.12Z" fill="url(#paint0_linear)"/>
<defs>
<linearGradient id="paint0_linear" x1="37" y1="16.28" x2="37" y2="39.96" gradientUnits="userSpaceOnUse">
<stop offset="0.223958" stop-color="#39589D"/>
<stop offset="1" stop-color="#9144F2"/>
</linearGradient>
</defs>
</svg>
