<?xml version="1.0" standalone="no"?>
<!DOCTYPE svg PUBLIC "-//W3C//DTD SVG 20010904//EN"
 "http://www.w3.org/TR/2001/REC-SVG-20010904/DTD/svg10.dtd">
<svg version="1.0" xmlns="http://www.w3.org/2000/svg"
 width="5648.000000pt" height="1425.000000pt" viewBox="0 0 5648.000000 1425.000000"
 preserveAspectRatio="xMidYMid meet">
<metadata>
Created by potrace 1.15, written by Peter Selinger 2001-2017
</metadata>
<g transform="translate(0.000000,1425.000000) scale(0.100000,-0.100000)"
fill="#000000" stroke="none">
<path d="M3475 14218 c-648 -276 -1084 -506 -1565 -823 -753 -497 -1297 -1048
-1559 -1578 -75 -152 -113 -267 -184 -557 -122 -494 -153 -735 -162 -1250 -3
-202 -2 -233 5 -150 20 221 82 441 185 655 365 756 1230 1543 2435 2214 312
174 891 450 1187 566 l73 28 166 324 c91 179 164 326 162 327 -22 14 -650 276
-660 275 -7 -1 -44 -14 -83 -31z"/>
<path d="M7133 12990 c-861 -92 -1775 -314 -2656 -647 -688 -259 -1384 -599
-1963 -959 -878 -545 -1555 -1161 -1940 -1766 -145 -228 -277 -536 -319 -745
-37 -187 -37 -397 1 -562 47 -209 291 -770 460 -1059 96 -164 380 -579 390
-569 2 2 -14 35 -36 73 -55 95 -95 201 -120 325 -19 89 -21 126 -17 259 3 85
13 189 22 230 106 486 472 1040 1020 1543 1261 1159 3328 2090 5254 2368 l234
34 449 394 c247 216 446 397 441 401 -14 13 -1041 700 -1045 699 -1 -1 -81 -9
-175 -19z"/>
<path d="M18855 12781 c-263 -99 -481 -177 -924 -328 -418 -142 -466 -164
-537 -247 -47 -54 -89 -137 -104 -206 -17 -78 -8 -6040 9 -6180 89 -720 428
-1148 1081 -1364 316 -104 510 -131 970 -131 302 0 365 3 510 23 323 44 839
164 840 195 1 9 -339 1345 -344 1354 -1 1 -71 -12 -156 -28 -231 -43 -366 -59
-513 -59 -290 1 -440 77 -537 272 -49 101 -75 216 -90 398 -13 155 -9 2497 5
2543 l7 27 714 0 714 0 0 715 0 715 -725 0 -725 0 0 1185 c0 652 -3 1185 -7
1185 -5 -1 -89 -32 -188 -69z"/>
<path d="M29975 12784 c-361 -36 -622 -95 -867 -194 -560 -227 -910 -659
-1032 -1272 -58 -289 -54 76 -48 -4600 l2 -2228 880 0 880 0 0 2280 0 2280
705 0 705 0 0 720 0 720 -695 0 -695 0 -7 28 c-4 15 -8 106 -7 202 0 132 4
192 17 244 54 216 186 348 403 403 111 28 408 24 643 -10 102 -15 186 -25 188
-23 11 11 283 1270 276 1277 -27 27 -464 126 -683 155 -118 15 -569 27 -665
18z"/>
<path d="M13305 10658 c-318 -25 -638 -95 -935 -204 -132 -49 -437 -200 -545
-271 -324 -212 -554 -505 -669 -853 -153 -462 -120 -1045 84 -1451 68 -137
138 -235 249 -351 289 -302 604 -440 1586 -691 390 -100 390 -100 800 -183
370 -75 485 -103 556 -139 65 -33 128 -96 159 -160 21 -43 25 -64 25 -155 0
-93 -3 -111 -27 -162 -60 -130 -196 -214 -446 -277 -154 -39 -505 -59 -732
-42 -489 38 -718 120 -1448 518 l-285 155 -53 -53 c-29 -30 -249 -261 -489
-514 l-436 -460 92 -88 c348 -332 820 -608 1314 -767 518 -166 1237 -254 1822
-222 433 24 773 91 1099 217 613 237 1028 623 1204 1120 88 250 114 434 107
760 -6 271 -25 390 -92 585 -144 413 -455 733 -888 914 -245 103 -508 172
-1117 295 -786 159 -1125 248 -1278 337 -88 52 -170 200 -159 290 12 112 121
251 241 309 82 39 223 79 346 96 130 19 529 16 680 -5 439 -60 812 -208 1137
-453 54 -40 103 -72 109 -71 6 2 221 239 478 527 l468 523 -63 65 c-257 261
-671 501 -1128 653 -500 166 -1226 252 -1766 208z"/>
<path d="M23800 10634 c-884 -53 -1574 -422 -2097 -1124 -328 -438 -534 -936
-613 -1477 -94 -648 14 -1481 267 -2051 141 -319 293 -542 538 -788 323 -324
696 -546 1192 -708 353 -115 634 -163 1004 -173 467 -12 882 53 1356 213 353
119 613 258 873 467 176 142 498 485 474 506 -5 5 -263 201 -574 436 -311 235
-571 432 -578 438 -9 7 -48 -25 -150 -125 -75 -73 -164 -154 -197 -180 -220
-167 -437 -268 -695 -324 -68 -15 -127 -19 -295 -19 -189 1 -223 4 -335 28
-143 30 -312 84 -417 132 -323 149 -533 450 -637 916 -14 64 -26 124 -26 133
0 15 163 16 2058 16 l2059 0 7 183 c11 315 -16 703 -70 997 -125 677 -435
1299 -860 1724 -444 444 -1023 697 -1749 765 -126 12 -438 20 -535 15z m513
-1442 c418 -113 745 -473 837 -921 11 -55 20 -115 20 -135 l0 -36 -1125 0
c-1033 0 -1125 1 -1125 16 0 36 54 253 81 327 148 402 447 674 830 756 127 28
365 24 482 -7z"/>
<path d="M33995 10624 c-475 -40 -970 -171 -1370 -363 -279 -135 -463 -266
-692 -497 -90 -89 -163 -167 -163 -172 0 -9 1034 -1003 1049 -1010 3 -1 51 39
106 89 334 303 645 443 1069 480 465 41 844 -125 1011 -442 74 -142 105 -266
112 -461 l6 -138 -510 0 c-280 0 -592 -5 -694 -10 -1052 -60 -1702 -316 -2080
-820 -219 -291 -329 -655 -329 -1089 0 -690 316 -1263 869 -1576 126 -71 259
-125 441 -180 251 -74 475 -113 715 -122 585 -22 1087 184 1523 625 l112 114
0 -276 0 -276 870 0 870 0 0 1778 c0 1773 -5 2076 -36 2352 -40 356 -146 693
-299 945 -149 247 -366 466 -616 622 -305 191 -782 343 -1284 409 -106 14
-575 26 -680 18z m1140 -3700 c10 -108 -1 -366 -19 -447 -65 -282 -233 -521
-491 -697 -273 -185 -564 -241 -870 -166 -262 64 -403 160 -485 330 -48 100
-70 205 -70 333 0 275 121 435 428 568 167 73 294 90 867 120 482 25 609 32
622 34 7 0 14 -27 18 -75z"/>
<path d="M41380 10624 c-164 -20 -218 -28 -305 -46 -409 -83 -806 -319 -1087
-644 l-83 -96 -3 316 -2 316 -855 0 -855 0 0 -2990 0 -2990 875 0 874 0 4
1813 c3 1798 3 1813 24 1907 60 271 159 456 336 627 147 141 292 227 468 275
72 20 106 23 244 22 141 -1 172 -4 260 -28 363 -99 541 -308 612 -717 16 -97
18 -235 20 -1996 l4 -1893 884 0 885 0 0 1958 c0 1153 -4 2035 -10 2147 -24
456 -86 726 -237 1025 -95 188 -180 307 -328 455 -145 145 -265 233 -447 324
-199 100 -387 159 -628 196 -101 16 -565 29 -650 19z"/>
<path d="M51150 10624 c-147 -17 -281 -40 -375 -64 -411 -104 -760 -328 -1053
-675 l-42 -50 0 318 0 317 -855 0 -855 0 0 -2990 0 -2990 875 0 875 0 0 1768
c0 1167 4 1796 10 1852 53 426 289 767 652 940 139 66 219 83 398 84 161 1
198 -4 345 -51 131 -42 211 -89 301 -178 155 -154 225 -340 254 -680 6 -76 10
-784 10 -1922 l0 -1803 885 0 885 0 -1 1573 c-1 1842 -10 2644 -33 2825 -23
176 -52 308 -102 460 -229 699 -783 1146 -1549 1252 -80 11 -559 22 -625 14z"/>
<path d="M44950 7480 l0 -2990 870 0 870 0 0 2990 0 2990 -870 0 -870 0 0
-2990z"/>
<path d="M54730 7480 l0 -2990 870 0 870 0 0 2990 0 2990 -870 0 -870 0 0
-2990z"/>
<path d="M6800 10036 c-1452 -332 -2878 -1010 -3860 -1836 -177 -149 -491
-464 -612 -615 -256 -319 -430 -650 -494 -940 -8 -38 -18 -132 -21 -207 -9
-204 18 -341 98 -502 49 -98 94 -161 184 -254 95 -100 160 -150 361 -280 412
-266 904 -498 1349 -636 99 -31 188 -59 199 -62 11 -4 16 -2 13 4 -4 5 -28 15
-54 22 -78 21 -219 77 -307 121 -287 144 -472 355 -532 606 -22 90 -22 264 0
366 150 694 966 1475 2161 2067 557 276 1148 489 1730 625 88 20 182 42 208
49 46 10 69 33 478 450 236 242 426 443 422 447 -12 12 -1161 609 -1170 608
-4 0 -73 -15 -153 -33z"/>
<path d="M6785 7215 c-469 -144 -955 -366 -1346 -615 -719 -458 -1124 -1004
-1060 -1430 14 -97 74 -220 143 -295 314 -344 1071 -439 1990 -249 91 19 169
34 172 34 3 0 6 5 6 10 0 6 -10 10 -22 10 -42 0 -251 60 -331 94 -215 93 -334
208 -374 359 -17 64 -17 70 0 134 81 311 592 669 1167 819 52 13 97 28 100 33
3 4 135 171 294 370 162 204 285 366 280 371 -17 16 -870 390 -889 390 -11 -1
-69 -16 -130 -35z"/>
<path d="M39585 3229 c-418 -39 -766 -209 -1018 -496 -279 -319 -413 -728
-394 -1203 16 -400 137 -733 369 -1018 271 -331 762 -519 1307 -499 183 6 294
24 446 72 237 74 454 206 653 399 l52 50 0 618 0 618 -665 0 -665 0 0 -175 0
-175 485 0 485 0 0 -362 0 -363 -63 -47 c-163 -122 -329 -199 -517 -239 -135
-29 -394 -31 -539 -5 -256 47 -455 146 -613 308 -162 166 -268 367 -319 611
-29 134 -32 395 -6 537 94 509 435 879 902 979 396 85 828 -16 1137 -266 44
-35 83 -63 88 -61 11 4 220 250 220 259 0 12 -165 150 -243 202 -309 208 -683
295 -1102 256z"/>
<path d="M47140 3219 c-545 -56 -984 -363 -1214 -850 -106 -223 -146 -407
-153 -699 -9 -349 40 -579 183 -864 244 -486 678 -759 1262 -795 470 -29 863
87 1177 348 175 147 347 414 435 680 66 196 81 289 87 526 6 233 -7 362 -53
534 -116 431 -420 811 -785 980 -267 124 -604 174 -939 140z m426 -374 c240
-42 423 -133 598 -296 174 -163 279 -359 338 -632 31 -146 31 -437 0 -582 -45
-211 -119 -377 -237 -534 -218 -289 -506 -421 -918 -421 -484 0 -831 203
-1040 607 -190 367 -193 879 -9 1248 170 341 445 549 806 609 114 19 353 20
462 1z"/>
<path d="M42280 1626 l0 -1556 195 0 195 0 0 555 0 555 373 0 372 0 480 -555
480 -555 254 0 253 0 -70 78 c-316 351 -942 1057 -942 1062 0 3 41 11 90 18
194 26 369 105 492 220 194 183 288 419 288 722 0 303 -89 522 -294 725 -144
143 -267 208 -482 256 -97 22 -117 22 -891 26 l-793 4 0 -1555z m1636 1161
c189 -63 332 -210 399 -408 23 -71 28 -101 28 -194 1 -136 -13 -206 -64 -313
-54 -111 -144 -204 -249 -256 -147 -72 -121 -69 -772 -73 l-588 -4 0 641 0
641 583 -3 582 -3 81 -28z"/>
<path d="M52227 2138 l-3 -1043 -22 -80 c-13 -44 -46 -127 -74 -185 -46 -92
-64 -117 -147 -201 -110 -110 -194 -164 -327 -208 -298 -99 -639 -37 -872 160
-133 111 -219 250 -270 436 l-27 98 -3 1028 -3 1027 -194 0 -195 0 0 -1007 c0
-845 3 -1024 15 -1108 45 -296 147 -507 332 -686 262 -253 585 -370 978 -356
229 8 382 45 561 133 171 85 345 237 448 393 92 138 158 323 188 528 10 67 13
324 13 1098 l0 1010 -197 3 -197 2 -4 -1042z"/>
<path d="M53990 1625 l0 -1555 195 0 195 0 0 500 0 500 573 0 c621 0 676 4
833 56 345 115 563 363 665 756 27 106 36 281 19 385 -27 173 -128 411 -230
546 -149 197 -412 328 -718 357 -61 6 -416 10 -819 10 l-713 0 0 -1555z m1595
1162 c241 -69 399 -226 467 -464 28 -100 31 -282 4 -388 -55 -225 -211 -394
-431 -467 -70 -23 -73 -23 -657 -26 l-588 -3 0 686 0 686 573 -3 c502 -4 579
-6 632 -21z"/>
</g>
</svg>
